<svg width="21" height="20" viewBox="0 0 21 20" fill="none" xmlns="http://www.w3.org/2000/svg">
<path d="M18.6035 1.86719C19.1484 2.41211 19.541 3.04199 19.7812 3.75684C20.0273 4.47168 20.1211 5.22168 20.0625 6.00684C20.0039 6.78613 19.7988 7.55664 19.4473 8.31836C19.0957 9.07422 18.6035 9.76855 17.9707 10.4014C17.2266 11.1455 16.4121 11.6758 15.5273 11.9922C14.6426 12.3086 13.7432 12.4844 12.8291 12.5195C12.1553 12.543 11.543 12.5869 10.9922 12.6514C10.4473 12.7158 9.92285 12.8359 9.41895 13.0117C8.9209 13.1875 8.41406 13.4541 7.89844 13.8115C7.38281 14.1689 6.81738 14.6553 6.20215 15.2705L5.19141 14.2686C5.80664 13.6533 6.2959 13.0879 6.65918 12.5723C7.02832 12.0508 7.30078 11.541 7.47656 11.043C7.6582 10.5391 7.77832 10.0117 7.83691 9.46094C7.90137 8.91016 7.93945 8.29785 7.95117 7.62402C7.96875 6.72168 8.13867 5.8252 8.46094 4.93457C8.78906 4.04395 9.32227 3.22949 10.0605 2.49121C10.6934 1.8584 11.3877 1.36914 12.1436 1.02344C12.9053 0.671875 13.6758 0.466797 14.4551 0.408203C15.2402 0.349609 15.9902 0.44043 16.7051 0.680664C17.4199 0.920898 18.0527 1.31641 18.6035 1.86719ZM17.5488 2.91309C16.9805 2.34473 16.3301 1.99023 15.5977 1.84961C14.8711 1.70312 14.1211 1.77344 13.3477 2.06055C12.5742 2.3418 11.8271 2.83691 11.1064 3.5459C10.3916 4.2666 9.89062 5.0166 9.60352 5.7959C9.32227 6.5752 9.25195 7.32812 9.39258 8.05469C9.53906 8.78125 9.89941 9.42871 10.4736 9.99707C11.042 10.5654 11.6895 10.9229 12.416 11.0693C13.1426 11.21 13.8926 11.1396 14.666 10.8584C15.4453 10.5713 16.1982 10.0703 16.9248 9.35547C17.6396 8.64062 18.1377 7.89648 18.4189 7.12305C18.7002 6.34961 18.7676 5.59961 18.6211 4.87305C18.4746 4.14063 18.1172 3.4873 17.5488 2.91309ZM9.41895 11.0518C9.30762 10.9346 9.19922 10.8145 9.09375 10.6914C8.99414 10.5684 8.90332 10.4395 8.82129 10.3047C8.75684 10.6797 8.65723 11.0488 8.52246 11.4121C8.3877 11.7754 8.19434 12.1445 7.94238 12.5195C8.32324 12.2793 8.69531 12.0889 9.05859 11.9482C9.42188 11.8076 9.79102 11.7051 10.166 11.6406C10.0312 11.5527 9.89941 11.4619 9.77051 11.3682C9.64746 11.2744 9.53027 11.1689 9.41895 11.0518ZM1.2627 18.6543C1.03418 18.4199 0.919922 18.1533 0.919922 17.8545C0.919922 17.5557 1.03418 17.2949 1.2627 17.0723L4.61133 13.7061C4.83984 13.4834 5.10352 13.3721 5.40234 13.3721C5.70703 13.3721 5.97363 13.4834 6.20215 13.7061L6.72949 14.2422C6.95801 14.4648 7.07227 14.7285 7.07227 15.0332C7.07227 15.332 6.95801 15.5986 6.72949 15.833L3.38086 19.1816C3.15234 19.4102 2.88574 19.5244 2.58105 19.5244C2.28223 19.5244 2.01855 19.4102 1.79004 19.1816L1.2627 18.6543ZM8.75977 7.54492L15.1055 1.19043L15.5537 1.64746L9.20801 7.99316L8.75977 7.54492ZM9.2168 9.54883L17.1182 1.65625L17.5488 2.11328L9.65625 9.99707L9.2168 9.54883ZM10.4648 10.8057L18.3662 2.9043L18.8057 3.36133L10.9219 11.2451L10.4648 10.8057ZM12.4775 11.2627L18.8232 4.91699L19.2715 5.35645L12.917 11.7197L12.4775 11.2627ZM14.332 1.43652L14.7803 0.99707L19.4121 5.62012L18.9639 6.05957L14.332 1.43652ZM12.3896 1.84082L12.8379 1.39258L19.0781 7.62402L18.6211 8.08105L12.3896 1.84082ZM11.1504 2.92188L11.5986 2.46484L17.9883 8.86328L17.5312 9.31152L11.1504 2.92188ZM10.0342 4.03809L10.4824 3.58105L16.8633 9.9707L16.415 10.4277L10.0342 4.03809ZM8.95312 5.27734L9.39258 4.83789L15.6328 11.0693L15.1846 11.5176L8.95312 5.27734ZM8.54004 7.20215L8.98828 6.75391L13.6465 11.4121L13.1982 11.8604L8.54004 7.20215Z" fill="#007AFF"/>
</svg>
