<svg width="26" height="20" viewBox="0 0 26 20" fill="none" xmlns="http://www.w3.org/2000/svg">
<path d="M7.20801 13.8906C7.02637 13.8906 6.87402 13.8408 6.75098 13.7412C6.63379 13.6416 6.55469 13.5098 6.51367 13.3457L6.16211 11.8955C6.03906 11.8486 5.91895 11.8018 5.80176 11.7549C5.68457 11.708 5.57324 11.6553 5.46777 11.5967L4.19336 12.3877C4.04688 12.4756 3.89453 12.5137 3.73633 12.502C3.57812 12.4844 3.4375 12.4141 3.31445 12.291L2.4707 11.4385C2.35352 11.3154 2.2832 11.1748 2.25977 11.0166C2.24219 10.8525 2.28027 10.6943 2.37402 10.542L3.15625 9.29395C3.10352 9.18262 3.05078 9.07129 2.99805 8.95996C2.95117 8.84277 2.91016 8.72559 2.875 8.6084L1.41602 8.25684C1.24609 8.21582 1.11133 8.13672 1.01172 8.01953C0.917969 7.90234 0.871094 7.75293 0.871094 7.57129V6.38477C0.871094 6.01562 1.05273 5.78711 1.41602 5.69922L2.85742 5.33887C2.9043 5.20996 2.95117 5.08984 2.99805 4.97852C3.04492 4.86133 3.0918 4.75293 3.13867 4.65332L2.37402 3.37891C2.28613 3.2207 2.24512 3.06543 2.25098 2.91309C2.25684 2.76074 2.32422 2.62305 2.45312 2.5L3.31445 1.65625C3.4375 1.53906 3.5752 1.46875 3.72754 1.44531C3.87988 1.42187 4.0293 1.4541 4.17578 1.54199L5.45898 2.33301C5.56445 2.27441 5.67578 2.22168 5.79297 2.1748C5.91602 2.12793 6.03906 2.08105 6.16211 2.03418L6.51367 0.575195C6.55469 0.411133 6.63379 0.279297 6.75098 0.179688C6.87402 0.0800781 7.02637 0.0302734 7.20801 0.0302734H8.40332C8.58496 0.0302734 8.73438 0.0800781 8.85156 0.179688C8.97461 0.279297 9.05664 0.411133 9.09766 0.575195L9.44922 2.05176C9.57812 2.09277 9.70117 2.13672 9.81836 2.18359C9.93555 2.23047 10.0439 2.2832 10.1436 2.3418L11.4355 1.54199C11.582 1.4541 11.7314 1.42187 11.8838 1.44531C12.0361 1.46875 12.1738 1.53906 12.2969 1.65625L13.1582 2.5C13.2871 2.62305 13.3545 2.76074 13.3604 2.91309C13.3662 3.06543 13.3252 3.2207 13.2373 3.37891L12.4727 4.65332C12.5195 4.75293 12.5664 4.86133 12.6133 4.97852C12.6602 5.08984 12.707 5.20996 12.7539 5.33887L14.1865 5.69922C14.5557 5.78711 14.7402 6.01562 14.7402 6.38477V7.57129C14.7402 7.75293 14.6904 7.90234 14.5908 8.01953C14.4971 8.13672 14.3623 8.21582 14.1865 8.25684L12.7363 8.6084C12.7012 8.72559 12.6572 8.84277 12.6045 8.95996C12.5576 9.07129 12.5078 9.18262 12.4551 9.29395L13.2373 10.542C13.3311 10.6943 13.3662 10.8525 13.3428 11.0166C13.3252 11.1748 13.2578 11.3154 13.1406 11.4385L12.2969 12.291C12.1738 12.4141 12.0332 12.4844 11.875 12.502C11.7168 12.5137 11.5645 12.4756 11.418 12.3877L10.1436 11.5967C10.0381 11.6553 9.92676 11.708 9.80957 11.7549C9.69238 11.8018 9.57227 11.8486 9.44922 11.8955L9.09766 13.3457C9.05664 13.5098 8.97461 13.6416 8.85156 13.7412C8.73438 13.8408 8.58496 13.8906 8.40332 13.8906H7.20801ZM7.80566 9.1709C8.20996 9.1709 8.5791 9.07129 8.91309 8.87207C9.24707 8.67285 9.51367 8.40625 9.71289 8.07227C9.91797 7.73242 10.0205 7.35742 10.0205 6.94727C10.0205 6.54883 9.91797 6.18262 9.71289 5.84863C9.51367 5.51465 9.24707 5.24805 8.91309 5.04883C8.5791 4.84961 8.20996 4.75 7.80566 4.75C7.40137 4.75 7.0293 4.84961 6.68945 5.04883C6.35547 5.24805 6.08887 5.51465 5.88965 5.84863C5.69043 6.18262 5.59082 6.54883 5.59082 6.94727C5.59082 7.35742 5.69043 7.73242 5.88965 8.07227C6.08887 8.40625 6.35547 8.67285 6.68945 8.87207C7.0293 9.07129 7.40137 9.1709 7.80566 9.1709ZM18.6777 19.2959C18.5195 19.2959 18.3877 19.252 18.2822 19.1641C18.1768 19.082 18.1064 18.9707 18.0713 18.8301L17.7725 17.5732C17.667 17.5322 17.5615 17.4912 17.4561 17.4502C17.3564 17.4092 17.2598 17.3623 17.166 17.3096L16.0674 17.9951C15.9443 18.0713 15.8125 18.1035 15.6719 18.0918C15.5371 18.0801 15.417 18.0215 15.3115 17.916L14.6084 17.2041C14.5029 17.0928 14.4385 16.9668 14.415 16.8262C14.3975 16.6855 14.4326 16.5537 14.5205 16.4307L15.1973 15.3408C15.1504 15.2471 15.1064 15.1504 15.0654 15.0508C15.0244 14.9512 14.9893 14.8516 14.96 14.752L13.6943 14.4531C13.5479 14.4238 13.4307 14.3564 13.3428 14.251C13.2607 14.1455 13.2197 14.0137 13.2197 13.8555V12.8623C13.2197 12.7041 13.2607 12.5723 13.3428 12.4668C13.4307 12.3613 13.5479 12.291 13.6943 12.2559L14.9424 11.957C14.9834 11.8398 15.0215 11.7314 15.0566 11.6318C15.0977 11.5322 15.1387 11.4414 15.1797 11.3594L14.5205 10.252C14.4385 10.123 14.4004 9.99414 14.4062 9.86523C14.418 9.73047 14.4824 9.60742 14.5996 9.49609L15.3115 8.79297C15.417 8.6875 15.5371 8.62598 15.6719 8.6084C15.8066 8.59082 15.9326 8.61719 16.0498 8.6875L17.1572 9.37305C17.251 9.32031 17.3506 9.27637 17.4561 9.24121C17.5615 9.2002 17.667 9.15918 17.7725 9.11816L18.0713 7.85254C18.1064 7.71191 18.1768 7.59766 18.2822 7.50977C18.3877 7.42188 18.5195 7.37793 18.6777 7.37793H19.6797C19.8379 7.37793 19.9697 7.42188 20.0752 7.50977C20.1807 7.59766 20.251 7.71191 20.2861 7.85254L20.5762 9.13574C20.6875 9.16504 20.7959 9.20312 20.9014 9.25C21.0068 9.29688 21.1035 9.34082 21.1914 9.38184L22.2988 8.6875C22.4219 8.61133 22.5479 8.58496 22.6768 8.6084C22.8115 8.62598 22.9346 8.6875 23.0459 8.79297L23.7666 9.49609C23.8779 9.60742 23.9365 9.73047 23.9424 9.86523C23.9541 9.99414 23.9189 10.123 23.8369 10.252L23.1689 11.3594C23.2568 11.5176 23.3389 11.7168 23.415 11.957L24.6719 12.2559C24.9766 12.3262 25.1289 12.5283 25.1289 12.8623V13.8555C25.1289 14.1836 24.9766 14.3828 24.6719 14.4531L23.4062 14.752C23.3711 14.8516 23.333 14.9512 23.292 15.0508C23.251 15.1504 23.207 15.2471 23.1602 15.3408L23.8369 16.4307C23.9189 16.5537 23.9512 16.6855 23.9336 16.8262C23.916 16.9668 23.8545 17.0928 23.749 17.2041L23.0459 17.916C22.9346 18.0215 22.8115 18.0801 22.6768 18.0918C22.542 18.1035 22.4131 18.0713 22.29 17.9951L21.1914 17.3096C21.0977 17.3623 20.998 17.4092 20.8926 17.4502C20.793 17.4912 20.6875 17.5322 20.5762 17.5732L20.2861 18.8301C20.251 18.9707 20.1807 19.082 20.0752 19.1641C19.9697 19.252 19.8379 19.2959 19.6797 19.2959H18.6777ZM19.1787 15.0947C19.665 15.0947 20.0781 14.9248 20.418 14.585C20.7637 14.2393 20.9365 13.8203 20.9365 13.3281C20.9365 12.8477 20.7637 12.4375 20.418 12.0977C20.0781 11.752 19.665 11.5791 19.1787 11.5791C18.6982 11.5791 18.2852 11.752 17.9395 12.0977C17.5938 12.4375 17.4209 12.8477 17.4209 13.3281C17.4209 13.8203 17.5938 14.2393 17.9395 14.585C18.2852 14.9248 18.6982 15.0947 19.1787 15.0947Z" fill="#007AFF"/>
</svg>
